<svg xmlns="http://www.w3.org/2000/svg" version="1.1" viewBox="10 10 190 190" width="178.0pt"
    height="178.0pt">
    <!-- <line x1="12" y1="188" x2="188" y2="188" stroke="black" stroke-width="3" />
    <line x1="14" y1="188" x2="14" y2="62" stroke="black" stroke-width="3" /> -->
    <!-- <line x1="0" y1="80" x2="100" y2="20" stroke="black" />
    <line x1="0" y1="80" x2="100" y2="20" stroke="black" />
    <line x1="0" y1="80" x2="100" y2="20" stroke="black" />
    <line x1="0" y1="80" x2="100" y2="20" stroke="black" /> -->
    <path
        d="M 14 188 L 14 62  L 100 12 L 188 62 L 188 188  L 14 188 "
        stroke="#000000" fill="transparent" stroke-width="4" stroke-linecap="round"
        stroke-linejoin="round" />
    <path
        d="M 39.63 74.94 C 42.10 74.94 44.58 74.94 47.05 74.94 C 58.85 103.55 70.64 132.18 82.43 160.80 C 94.25 132.19 106.01 103.55 117.83 74.94 C 120.30 74.94 122.77 74.94 125.25 74.94 C 125.26 106.96 125.25 138.98 125.25 171.00 C 123.69 171.00 122.12 171.00 120.56 171.00 C 120.55 140.88 120.57 110.76 120.55 80.65 C 108.08 110.64 95.67 141.15 83.09 171.04 C 82.01 171.13 81.41 170.78 81.26 170.00 C 68.95 140.24 56.64 110.40 44.32 80.65 C 44.30 110.76 44.32 140.88 44.31 171.00 C 42.75 171.00 41.19 171.00 39.62 171.00 C 39.63 138.98 39.62 106.96 39.63 74.94 Z"
        fill="#000000" />
    <path
        d="M 151.30 81.31 C 154.21 80.37 157.11 82.84 156.73 85.86 C 156.29 89.25 152.15 90.76 149.66 88.34 C 147.28 86.11 148.31 82.33 151.30 81.31 Z"
        fill="#000000" />
    <path
        d="M 150.38 101.43 C 151.84 101.43 153.30 101.44 154.77 101.46 C 154.73 124.66 154.76 147.86 154.75 171.06 C 153.29 171.06 151.83 171.06 150.38 171.06 C 150.37 147.85 150.36 124.64 150.38 101.43 Z"
        fill="#000000" />
</svg>