<svg>
  <symbol id="bonus_star" xmlns="http://www.w3.org/2000/svg" xmlns:xlink="http://www.w3.org/1999/xlink"
    viewBox="0 0 24.25 24.285">
    <defs>
      <clipPath id="clip-path">
        <rect id="Прямоугольник_541" width="24.25" height="24.285" fill="#8289a3"></rect>
      </clipPath>
      <clipPath id="clip-path-2">
        <rect id="Прямоугольник_540" width="24.25" height="24.285" transform="translate(0 0)" fill="#8289a3"></rect>
      </clipPath>
      <clipPath id="clip-path-3">
        <rect id="Прямоугольник_539" width="24.25" height="24.25" transform="translate(0 0.035)" fill="#8289a3"></rect>
      </clipPath>
    </defs>
    <g id="Сгруппировать_2742" clip-path="url(#clip-path)">
      <g id="Сгруппировать_2741">
        <g id="Сгруппировать_2740" clip-path="url(#clip-path-2)">
          <g id="Сгруппировать_2739" opacity="0">
            <g id="Сгруппировать_2738">
              <g id="Сгруппировать_2737" clip-path="url(#clip-path-3)">
                <rect id="Прямоугольник_538" width="24" height="24" transform="translate(0.125 0.16)" fill="#8289a3"
                  stroke="#293644" stroke-miterlimit="10" stroke-width="0.25"></rect>
              </g>
            </g>
          </g>
          <path id="Контур_916"
            d="M12.247,0a12,12,0,1,0,12,12,12,12,0,0,0-12-12m0,22.5A10.5,10.5,0,1,1,22.747,12a10.512,10.512,0,0,1-10.5,10.5"
            fill="#8289a3"></path>
          <path id="Контур_917"
            d="M17.844,9.465l-3.491-.507-1.56-3.164a.751.751,0,0,0-1.346,0L9.885,8.958l-3.49.507a.75.75,0,0,0-.416,1.279l2.527,2.463-.6,3.477A.75.75,0,0,0,9,17.475l3.123-1.642,3.123,1.642a.742.742,0,0,0,.349.086.75.75,0,0,0,.739-.877l-.6-3.477,2.526-2.463a.75.75,0,0,0-.416-1.279M14.4,12.408a.748.748,0,0,0-.216.664L14.6,15.44l-2.127-1.118a.749.749,0,0,0-.7,0L9.644,15.44l.407-2.368a.751.751,0,0,0-.216-.664L8.114,10.731l2.377-.345a.749.749,0,0,0,.565-.411L12.12,7.821l1.062,2.154a.753.753,0,0,0,.566.411l2.378.345Z"
            fill="#8289a3"></path>
        </g>
      </g>
    </g>
  </symbol>

  <symbol id="service" xmlns="http://www.w3.org/2000/svg" xmlns:xlink="http://www.w3.org/1999/xlink"
    viewBox="0 0 24 24">
    <defs>
      <clipPath id="clip-path">
        <rect id="Прямоугольник_350" width="24" height="24" fill="#8289a3" stroke="rgba(0,0,0,0)" stroke-width="1">
        </rect>
      </clipPath>
    </defs>
    <g id="Сгруппировать_2444" clip-path="url(#clip-path)">
      <g id="Сгруппировать_2443">
        <g id="Сгруппировать_2442" clip-path="url(#clip-path)">
          <g id="Сгруппировать_2441" opacity="0">
            <g id="Сгруппировать_2440">
              <g id="Сгруппировать_2439" clip-path="url(#clip-path)">
                <path id="Прямоугольник_347" d="M-.125-.125h24v24h-24ZM23.628.122H.122V23.628H23.628Z"
                  transform="translate(0.125 0.125)" fill="#8289a3"></path>
              </g>
            </g>
          </g>
          <path id="Контур_826"
            d="M12.291,21.706H11.183a1.742,1.742,0,0,1-1.74-1.74.257.257,0,0,0-.183-.244,8.2,8.2,0,0,1-1.291-.535.262.262,0,0,0-.3.042,1.742,1.742,0,0,1-2.461,0l-.784-.784a1.743,1.743,0,0,1,0-2.461.258.258,0,0,0,.044-.3,8.2,8.2,0,0,1-.535-1.289.258.258,0,0,0-.245-.185,1.742,1.742,0,0,1-1.74-1.74V11.359a1.742,1.742,0,0,1,1.74-1.74.257.257,0,0,0,.244-.183,8.2,8.2,0,0,1,.535-1.291.258.258,0,0,0-.042-.3,1.744,1.744,0,0,1,0-2.461L5.2,4.6a1.74,1.74,0,0,1,2.432-.028l.03.029a.25.25,0,0,0,.178.073.268.268,0,0,0,.125-.031A8.2,8.2,0,0,1,9.258,4.1a.258.258,0,0,0,.185-.245,1.742,1.742,0,0,1,1.74-1.74h1.108a1.742,1.742,0,0,1,1.74,1.74.257.257,0,0,0,.183.244,8.2,8.2,0,0,1,1.291.535.268.268,0,0,0,.125.031.25.25,0,0,0,.178-.073l.03-.029A1.74,1.74,0,0,1,18.27,4.6l.783.783a1.74,1.74,0,0,1,.028,2.433l-.029.03a.257.257,0,0,0-.042.3,8.2,8.2,0,0,1,.535,1.289.258.258,0,0,0,.245.185,1.742,1.742,0,0,1,1.74,1.74v1.108a1.742,1.742,0,0,1-1.74,1.74.257.257,0,0,0-.244.183,8.2,8.2,0,0,1-.535,1.291.257.257,0,0,0,.042.3l.029.03a1.74,1.74,0,0,1-.028,2.432l-.783.783a1.742,1.742,0,0,1-2.461,0,.262.262,0,0,0-.3-.044,8.2,8.2,0,0,1-1.289.535.258.258,0,0,0-.185.245A1.742,1.742,0,0,1,12.291,21.706ZM7.845,17.671a1.761,1.761,0,0,1,.809.2,6.709,6.709,0,0,0,1.055.437,1.735,1.735,0,0,1,1.219,1.659.256.256,0,0,0,.255.255h1.108a.256.256,0,0,0,.255-.255,1.736,1.736,0,0,1,1.22-1.66,6.7,6.7,0,0,0,1.053-.437,1.76,1.76,0,0,1,.809-.2,1.726,1.726,0,0,1,1.229.508.257.257,0,0,0,.363,0L18,17.4a.255.255,0,0,0,.075-.182.253.253,0,0,0-.074-.18l-.029-.03A1.735,1.735,0,0,1,17.694,15a6.709,6.709,0,0,0,.437-1.055,1.735,1.735,0,0,1,1.659-1.219.256.256,0,0,0,.255-.255V11.359a.256.256,0,0,0-.255-.255,1.736,1.736,0,0,1-1.66-1.22,6.7,6.7,0,0,0-.437-1.053,1.735,1.735,0,0,1,.282-2.01L18,6.79a.255.255,0,0,0,0-.361l-.783-.783a.255.255,0,0,0-.361,0l-.03.029a1.723,1.723,0,0,1-1.2.48,1.762,1.762,0,0,1-.81-.2,6.709,6.709,0,0,0-1.055-.437A1.735,1.735,0,0,1,12.547,3.86a.256.256,0,0,0-.255-.255H11.183a.256.256,0,0,0-.255.255,1.736,1.736,0,0,1-1.22,1.66,6.7,6.7,0,0,0-1.053.437,1.762,1.762,0,0,1-.81.2,1.723,1.723,0,0,1-1.2-.481l-.03-.028a.255.255,0,0,0-.361,0l-.784.783a.256.256,0,0,0,0,.361A1.737,1.737,0,0,1,5.78,8.83a6.709,6.709,0,0,0-.437,1.055A1.735,1.735,0,0,1,3.684,11.1a.256.256,0,0,0-.255.255v1.108a.256.256,0,0,0,.255.255,1.736,1.736,0,0,1,1.66,1.22A6.7,6.7,0,0,0,5.78,15a1.737,1.737,0,0,1-.31,2.038.257.257,0,0,0,0,.363l.783.783a.257.257,0,0,0,.362,0A1.727,1.727,0,0,1,7.845,17.671Z"
            transform="translate(-0.02 -0.022)" fill="#8289a3"></path>
          <path id="Контур_827"
            d="M11.8,7.836a4.136,4.136,0,1,1-4.137,4.136A4.141,4.141,0,0,1,11.8,7.836Zm0,6.787a2.651,2.651,0,1,0-2.652-2.651A2.654,2.654,0,0,0,11.8,14.623Z"
            transform="translate(-0.079 -0.081)" fill="#8289a3"></path>
        </g>
      </g>
    </g>
  </symbol>

  <symbol xmlns="http://www.w3.org/2000/svg" viewBox="0 0 12 12" id="kit-plus">
    <g id="Сгруппировать_2710" transform="translate(-349.5 -1220.5)">
      <line id="Линия_79" y2="12" transform="translate(355.5 1220.5)" fill="none" stroke="#d71a21" stroke-width="1">
      </line>
      <line id="Линия_80" y2="12" transform="translate(361.5 1226.5) rotate(90)" fill="none" stroke="#d71a21"
        stroke-width="1"></line>
    </g>
  </symbol>

  <symbol xmlns="http://www.w3.org/2000/svg" viewBox="0 0 12 6" id="kit-equal">
    <g id="Сгруппировать_2714" transform="translate(-994 -1144.5)">
      <g id="Сгруппировать_2712" transform="translate(644.5 -76.5)">
        <line id="Линия_80" y2="12" transform="translate(361.5 1226.5) rotate(90)" fill="none" stroke="#d71a21"
          stroke-width="1"></line>
      </g>
      <g id="Сгруппировать_2713" transform="translate(644.5 -81.5)">
        <line id="Линия_80-2" y2="12" transform="translate(361.5 1226.5) rotate(90)" fill="none" stroke="#d71a21"
          stroke-width="1"></line>
      </g>
    </g>
  </symbol>

  <symbol xmlns="http://www.w3.org/2000/svg" xmlns:xlink="http://www.w3.org/1999/xlink" viewBox="0 0 16 14.026"
    id="attent">
    <defs>
      <clipPath id="clip-path">
        <rect id="Прямоугольник_456" width="16" height="14.026" fill="#ffb300"></rect>
      </clipPath>
    </defs>
    <g id="attent" transform="translate(0 0)">
      <g id="Сгруппировать_2607" transform="translate(0 0)" clip-path="url(#clip-path)">
        <path id="Контур_865"
          d="M8,9.145a.7.7,0,0,1,.7.7v.7a.7.7,0,1,1-1.395,0v-.7a.7.7,0,0,1,.7-.7M8,4.263a.7.7,0,0,1,.7.7V7.75a.7.7,0,1,1-1.395,0V4.96a.7.7,0,0,1,.7-.7M6.206,1.016a2.092,2.092,0,0,1,3.588,0L15.7,10.858a2.092,2.092,0,0,1-1.794,3.168H2.1A2.092,2.092,0,0,1,.3,10.858ZM8.6,1.734a.7.7,0,0,0-1.2,0L1.5,11.575a.7.7,0,0,0,.6,1.056h11.81a.7.7,0,0,0,.6-1.056Z"
          transform="translate(0 0)" fill="#ffb300" fill-rule="evenodd"></path>
      </g>
    </g>
  </symbol>

  <symbol id="file" xmlns="http://www.w3.org/2000/svg" xmlns:xlink="http://www.w3.org/1999/xlink"
    viewBox="0 0 56.6 69.126">
    <defs>
      <clipPath id="clip-path">
        <rect id="Прямоугольник_12497" width="56.6" height="69.126" fill="none"></rect>
      </clipPath>
    </defs>
    <g id="Сгруппировать_5649" clip-path="url(#clip-path)">
      <path id="Контур_1699"
        d="M56.227,15.512,40.812.332A1.141,1.141,0,0,0,40.01,0H11.572A8.006,8.006,0,0,0,3.788,8.212v30.3H0V59.061H3.788v1.853a8.024,8.024,0,0,0,7.784,8.212H48.816A8.006,8.006,0,0,0,56.6,60.913V16.41a1.232,1.232,0,0,0-.373-.9M39.623,2.544l13.41,13.217h-7.3a6.063,6.063,0,0,1-6.111-6ZM54.25,60.913a5.594,5.594,0,0,1-5.433,5.737H11.572a5.594,5.594,0,0,1-5.433-5.737V59.061H31.991c5.046,0,9.125-4.6,9.125-10.272s-4.092-10.272-9.125-10.272H6.138V8.212a5.594,5.594,0,0,1,5.433-5.737h25.7V9.761a8.473,8.473,0,0,0,8.461,8.475H54.25ZM7.272,53.973V43.6H11.24a3.783,3.783,0,0,1,2.682.885,3.053,3.053,0,0,1,.968,2.336,2.986,2.986,0,0,1-.968,2.336,3.9,3.9,0,0,1-2.682.885H9v3.926Zm9.719,0V43.6H20.42a4.378,4.378,0,0,1,3.207,1.23A4.25,4.25,0,0,1,24.858,48v1.576a4.282,4.282,0,0,1-1.23,3.166,4.378,4.378,0,0,1-3.207,1.23Zm16.12-5.807v1.383H28.936v4.424H27.194V43.6H33.83v1.383H28.922v3.166h4.189Z"
        fill="#ed1c24"></path>
      <path id="Контур_1700"
        d="M68.791,328.638a1.843,1.843,0,0,0,.484-1.3A1.746,1.746,0,0,0,67.34,325.5H65.1v3.664h2.24a1.955,1.955,0,0,0,1.452-.525"
        transform="translate(-56.1 -280.499)" fill="#ed1c24"></path>
      <path id="Контур_1701"
        d="M137.1,325.5h-1.7v7.6h1.7a2.465,2.465,0,0,0,1.977-.843,3.221,3.221,0,0,0,.733-2.171V328.5a3.209,3.209,0,0,0-.733-2.157,2.465,2.465,0,0,0-1.977-.843"
        transform="translate(-116.681 -280.499)" fill="#ed1c24"></path>
    </g>
  </symbol>

  <symbol id="Already-bought" xmlns="http://www.w3.org/2000/svg" xmlns:xlink="http://www.w3.org/1999/xlink"
    viewBox="0 0 18.25 18.25">
    <defs>
      <clipPath id="clip-path">
        <rect id="Прямоугольник_465" width="18.25" height="18.25" fill="#2fae3c"></rect>
      </clipPath>
    </defs>
    <g id="Сгруппировать_2622" clip-path="url(#clip-path)">
      <g id="Сгруппировать_2621">
        <g id="Сгруппировать_2620" clip-path="url(#clip-path)">
          <path id="Контур_870" d="M15.2,16.472A1.3,1.3,0,1,1,13.9,15.167h0a1.3,1.3,0,0,1,1.305,1.305" fill="#2fae3c"
            fill-rule="evenodd"></path>
          <path id="Контур_871" d="M9.74,16.472a1.3,1.3,0,1,1-1.3-1.305,1.305,1.305,0,0,1,1.3,1.305" fill="#2fae3c"
            fill-rule="evenodd"></path>
          <path id="Контур_872"
            d="M15.5,5.405H14.1a.722.722,0,0,0,0,1.443h1.478a.721.721,0,0,1,.692.928l-1,3.411a.721.721,0,0,1-.574.508L8.212,12.778a.719.719,0,0,1-.813-.519L5.906,6.848H7.354a.722.722,0,0,0,0-1.443H5.512l-.361-1.3a2.17,2.17,0,0,0-2.09-1.587H1.276a.722.722,0,0,0,0,1.443H3.064a.721.721,0,0,1,.7.53l2.248,8.149A2.163,2.163,0,0,0,8.45,14.2l6.482-1.081a2.167,2.167,0,0,0,1.722-1.528l1-3.411a2.192,2.192,0,0,0-.32-1.888,2.222,2.222,0,0,0-1.83-.887"
            fill="#2fae3c" fill-rule="evenodd"></path>
          <g id="Сгруппировать_2619" opacity="0">
            <g id="Сгруппировать_2618">
              <g id="Сгруппировать_2617" clip-path="url(#clip-path)">
                <rect id="Прямоугольник_462" width="18" height="18" transform="translate(0.125 0.125)" fill="#2fae3c"
                  stroke="#8289a3" stroke-miterlimit="10" stroke-width="0.25"></rect>
              </g>
            </g>
          </g>
          <path id="Контур_873"
            d="M10.789,3.286a.621.621,0,0,1,.621.621V8.816l.8-.8a.621.621,0,0,1,.878.878l-1.863,1.863a.622.622,0,0,1-.878,0L8.487,8.891a.621.621,0,1,1,.878-.878l.8.8V3.907a.621.621,0,0,1,.621-.621"
            fill="#2fae3c" fill-rule="evenodd"></path>
        </g>
      </g>
    </g>
  </symbol>

  <symbol xmlns="http://www.w3.org/2000/svg" xmlns:xlink="http://www.w3.org/1999/xlink" viewBox="0 0 16 13.582"
    id="like-yes">
    <defs>
      <clipPath id="clip-path">
        <rect id="Прямоугольник_466" width="16" height="13.582"></rect>
      </clipPath>
    </defs>
    <g id="yes" transform="translate(0 0)">
      <g id="Сгруппировать_2624" transform="translate(0 0)" clip-path="url(#clip-path)">
        <path id="Контур_874"
          d="M2.037,6.112a.679.679,0,0,0-.679.679v4.754a.679.679,0,0,0,.679.679H4.075a.679.679,0,0,0,.659-.516.67.67,0,0,0,.02-.163V6.791a.678.678,0,0,0-.679-.679ZM5.773,12.67a18.591,18.591,0,0,0,3.575.621,13.371,13.371,0,0,0,3.811-.385,2.67,2.67,0,0,0,2.02-2.092l.781-3.905a2.037,2.037,0,0,0-2-2.437H11.328l.342-2.052A2.078,2.078,0,0,0,7.716,1.245L6.51,4a3,3,0,0,1-.632.891,2.561,2.561,0,0,1-.46.365,2.033,2.033,0,0,0-1.343-.505H2.037A2.037,2.037,0,0,0,0,6.791v4.754a2.037,2.037,0,0,0,2.037,2.037H4.075a2.035,2.035,0,0,0,1.7-.912M9.818,1.386a.719.719,0,0,0-.857.4L7.754,4.546a4.352,4.352,0,0,1-.923,1.315,3.916,3.916,0,0,1-.748.583,2.093,2.093,0,0,1,.029.347v4.564a17.275,17.275,0,0,0,3.311.579,12.047,12.047,0,0,0,3.439-.354,1.312,1.312,0,0,0,.986-1.033l.781-3.905a.679.679,0,0,0-.666-.812H11.328a1.358,1.358,0,0,1-1.34-1.582L10.33,2.2a.72.72,0,0,0-.512-.811"
          transform="translate(0 0)" fill-rule="evenodd"></path>
      </g>
    </g>
  </symbol>

  <symbol xmlns="http://www.w3.org/2000/svg" xmlns:xlink="http://www.w3.org/1999/xlink" viewBox="0 0 16 13.582"
    id="like-no">
    <defs>
      <clipPath id="clip-path">
        <rect id="Прямоугольник_467" width="16" height="13.582" fill="#8289a3"></rect>
      </clipPath>
    </defs>
    <g id="no" transform="translate(0 0)">
      <g id="Сгруппировать_2626" transform="translate(0 0)" clip-path="url(#clip-path)">
        <path id="Контур_875"
          d="M9.888,2.227a17.275,17.275,0,0,0-3.311-.579A12.05,12.05,0,0,0,3.139,2a1.312,1.312,0,0,0-.986,1.033L1.372,6.94a.679.679,0,0,0,.666.812H4.673A1.358,1.358,0,0,1,6.012,9.333L5.67,11.385a.72.72,0,0,0,1.37.407L8.246,9.035A4.354,4.354,0,0,1,9.169,7.72a3.94,3.94,0,0,1,.748-.582,2.093,2.093,0,0,1-.029-.347ZM10.227.912A2.035,2.035,0,0,1,11.925,0h2.037A2.037,2.037,0,0,1,16,2.037V6.791a2.037,2.037,0,0,1-2.037,2.037H11.925a2.034,2.034,0,0,1-1.343-.505,2.561,2.561,0,0,0-.46.365,3,3,0,0,0-.632.891L8.284,12.336A2.078,2.078,0,0,1,4.33,11.162L4.673,9.11H2.038a2.037,2.037,0,0,1-2-2.437L.821,2.768A2.671,2.671,0,0,1,2.841.676,13.371,13.371,0,0,1,6.652.291a18.539,18.539,0,0,1,3.575.621m1.7.446a.68.68,0,0,0-.659.516.67.67,0,0,0-.02.163V6.791a.678.678,0,0,0,.679.679h2.037a.679.679,0,0,0,.679-.679V2.037a.679.679,0,0,0-.679-.679Z"
          transform="translate(0 0)" fill-rule="evenodd"></path>
      </g>
    </g>
  </symbol>

  <symbol xmlns="http://www.w3.org/2000/svg" xmlns:xlink="http://www.w3.org/1999/xlink" viewBox="0 0 16 13.582"
    id="like-yes-green">
    <defs>
      <clipPath id="clip-path">
        <rect id="Прямоугольник_466" width="16" height="13.582" fill="#2fae3c"></rect>
      </clipPath>
    </defs>
    <g id="yes" transform="translate(0 0)">
      <g id="Сгруппировать_2624" transform="translate(0 0)" clip-path="url(#clip-path)">
        <path id="Контур_874"
          d="M2.037,6.112a.679.679,0,0,0-.679.679v4.754a.679.679,0,0,0,.679.679H4.075a.679.679,0,0,0,.659-.516.67.67,0,0,0,.02-.163V6.791a.678.678,0,0,0-.679-.679ZM5.773,12.67a18.591,18.591,0,0,0,3.575.621,13.371,13.371,0,0,0,3.811-.385,2.67,2.67,0,0,0,2.02-2.092l.781-3.905a2.037,2.037,0,0,0-2-2.437H11.328l.342-2.052A2.078,2.078,0,0,0,7.716,1.245L6.51,4a3,3,0,0,1-.632.891,2.561,2.561,0,0,1-.46.365,2.033,2.033,0,0,0-1.343-.505H2.037A2.037,2.037,0,0,0,0,6.791v4.754a2.037,2.037,0,0,0,2.037,2.037H4.075a2.035,2.035,0,0,0,1.7-.912M9.818,1.386a.719.719,0,0,0-.857.4L7.754,4.546a4.352,4.352,0,0,1-.923,1.315,3.916,3.916,0,0,1-.748.583,2.093,2.093,0,0,1,.029.347v4.564a17.275,17.275,0,0,0,3.311.579,12.047,12.047,0,0,0,3.439-.354,1.312,1.312,0,0,0,.986-1.033l.781-3.905a.679.679,0,0,0-.666-.812H11.328a1.358,1.358,0,0,1-1.34-1.582L10.33,2.2a.72.72,0,0,0-.512-.811"
          transform="translate(0 0)" fill="#2fae3c" fill-rule="evenodd"></path>
      </g>
    </g>
  </symbol>

  <symbol xmlns="http://www.w3.org/2000/svg" xmlns:xlink="http://www.w3.org/1999/xlink" viewBox="0 0 16 13.582"
    id="like-no-red">
    <defs>
      <clipPath id="clip-path">
        <rect id="Прямоугольник_466" width="16" height="13.582" fill="#f32735"></rect>
      </clipPath>
    </defs>
    <g id="yes" transform="translate(16 13.582) rotate(180)">
      <g id="Сгруппировать_2624" transform="translate(0 0)" clip-path="url(#clip-path)">
        <path id="Контур_874"
          d="M2.037,6.112a.679.679,0,0,0-.679.679v4.754a.679.679,0,0,0,.679.679H4.075a.679.679,0,0,0,.659-.516.67.67,0,0,0,.02-.163V6.791a.678.678,0,0,0-.679-.679ZM5.773,12.67a18.591,18.591,0,0,0,3.575.621,13.371,13.371,0,0,0,3.811-.385,2.67,2.67,0,0,0,2.02-2.092l.781-3.905a2.037,2.037,0,0,0-2-2.437H11.328l.342-2.052A2.078,2.078,0,0,0,7.716,1.245L6.51,4a3,3,0,0,1-.632.891,2.561,2.561,0,0,1-.46.365,2.033,2.033,0,0,0-1.343-.505H2.037A2.037,2.037,0,0,0,0,6.791v4.754a2.037,2.037,0,0,0,2.037,2.037H4.075a2.035,2.035,0,0,0,1.7-.912M9.818,1.386a.719.719,0,0,0-.857.4L7.754,4.546a4.352,4.352,0,0,1-.923,1.315,3.916,3.916,0,0,1-.748.583,2.093,2.093,0,0,1,.029.347v4.564a17.275,17.275,0,0,0,3.311.579,12.047,12.047,0,0,0,3.439-.354,1.312,1.312,0,0,0,.986-1.033l.781-3.905a.679.679,0,0,0-.666-.812H11.328a1.358,1.358,0,0,1-1.34-1.582L10.33,2.2a.72.72,0,0,0-.512-.811"
          transform="translate(0 0)" fill="#f32735" fill-rule="evenodd"></path>
      </g>
    </g>
  </symbol>

  <symbol xmlns="http://www.w3.org/2000/svg" xmlns:xlink="http://www.w3.org/1999/xlink" viewBox="0 0 16 12.393"
    id="message">
    <defs>
      <clipPath id="clip-path">
        <rect id="Прямоугольник_475" width="16" height="12.393" fill="#8289a3"></rect>
      </clipPath>
    </defs>
    <g id="Сгруппировать_2634" transform="translate(0 0)">
      <g id="Сгруппировать_2633" transform="translate(0 0)" clip-path="url(#clip-path)">
        <path id="Контур_876"
          d="M4.667,6.667A.667.667,0,0,1,5.333,6h5.333a.667.667,0,1,1,0,1.333H5.333a.667.667,0,0,1-.667-.667M4.667,4a.667.667,0,0,1,.667-.667h2a.667.667,0,0,1,0,1.333h-2A.667.667,0,0,1,4.667,4M0,2A2,2,0,0,1,2,0H14a2,2,0,0,1,2,2V8.667a2,2,0,0,1-2,2H3.609L2.276,12A1.333,1.333,0,0,1,0,11.057Zm2-.667A.667.667,0,0,0,1.333,2v9.057L2.862,9.529a.665.665,0,0,1,.471-.2H14a.667.667,0,0,0,.667-.667V2A.667.667,0,0,0,14,1.333Z"
          transform="translate(0 0)" fill="#8289a3" fill-rule="evenodd"></path>
      </g>
    </g>
  </symbol>

  <symbol id="addvideo" xmlns="http://www.w3.org/2000/svg" xmlns:xlink="http://www.w3.org/1999/xlink"
    viewBox="0 0 22 22">
    <defs>
      <clipPath id="clip-path">
        <rect id="Прямоугольник_494" width="22" height="22" fill="#8289a3"></rect>
      </clipPath>
    </defs>
    <g id="Сгруппировать_2656" clip-path="url(#clip-path)">
      <path id="Контур_881"
        d="M10,10.869v4.263L13.2,13ZM8.528,8.118a1,1,0,0,1,1.027.05l6,4a1,1,0,0,1,0,1.664l-6,4A1,1,0,0,1,8,17V9a1,1,0,0,1,.528-.882M0,3A3,3,0,0,1,3,0H19a3,3,0,0,1,3,3V19a3,3,0,0,1-3,3H3a3,3,0,0,1-3-3ZM20,6H2V19a1,1,0,0,0,1,1H19a1,1,0,0,0,1-1ZM16.618,2l1,2H20V3a1,1,0,0,0-1-1Zm-5,0,1,2h2.764l-1-2Zm-5,0,1,2h2.764l-1-2ZM3,2A1,1,0,0,0,2,3V4H5.382l-1-2Z"
        fill="#8289a3" fill-rule="evenodd"></path>
    </g>
  </symbol>

  <symbol id="addpicture" xmlns="http://www.w3.org/2000/svg" xmlns:xlink="http://www.w3.org/1999/xlink"
    viewBox="0 0 24 20">
    <defs>
      <clipPath id="clip-path">
        <rect id="Прямоугольник_495" width="24" height="20" fill="#8289a3"></rect>
      </clipPath>
    </defs>
    <g id="Сгруппировать_2658" clip-path="url(#clip-path)">
      <path id="Контур_882"
        d="M16,6a2,2,0,1,1,2,2,2,2,0,0,1-2-2m5.937,11.351L16,11.414l-3,3-7-7-4,4V17a1,1,0,0,0,1,1H21a1,1,0,0,0,.937-.649M3,2A1,1,0,0,0,2,3V8.586L4.586,6A2,2,0,0,1,7.414,6L13,11.586,14.586,10a2,2,0,0,1,2.828,0L22,14.586V3a1,1,0,0,0-1-1ZM0,3A3,3,0,0,1,3,0H21a3,3,0,0,1,3,3V17a3,3,0,0,1-3,3H3a3,3,0,0,1-3-3Z"
        fill="#8289a3" fill-rule="evenodd"></path>
    </g>
  </symbol>

  <symbol id="star" xmlns="http://www.w3.org/2000/svg" xmlns:xlink="http://www.w3.org/1999/xlink" viewBox="0 0 12.8 12">
    <defs>
      <clipPath id="clip-path">
        <rect fill="#e4e8f3" />
      </clipPath>
    </defs>
    <g clip-path="url(#clip-path)">
      <path
        d="M4.379,3.86.341,4.3a.385.385,0,0,0-.323.258.369.369,0,0,0,.108.392c1.2,1.076,3,2.688,3,2.688s-.494,2.345-.822,3.909a.376.376,0,0,0,.15.381.385.385,0,0,0,.412.021C4.282,11.161,6.4,9.974,6.4,9.974l3.529,1.977a.393.393,0,0,0,.415-.022.375.375,0,0,0,.149-.38c-.328-1.565-.821-3.91-.821-3.91s1.8-1.612,3-2.686a.375.375,0,0,0,.107-.395A.38.38,0,0,0,12.46,4.3c-1.616-.178-4.038-.441-4.038-.441s-1-2.183-1.672-3.638A.39.39,0,0,0,6.4,0a.381.381,0,0,0-.346.221C5.383,1.677,4.379,3.86,4.379,3.86"
        transform="translate(0)" fill="#e4e8f3" />
    </g>
  </symbol>
  <symbol id="star_active" xmlns="http://www.w3.org/2000/svg" xmlns:xlink="http://www.w3.org/1999/xlink"
    viewBox="0 0 12.8 12">
    <defs>
      <clipPath id="clip-path">
        <rect fill="#FFD500" />
      </clipPath>
    </defs>
    <g clip-path="url(#clip-path)">
      <path
        d="M4.379,3.86.341,4.3a.385.385,0,0,0-.323.258.369.369,0,0,0,.108.392c1.2,1.076,3,2.688,3,2.688s-.494,2.345-.822,3.909a.376.376,0,0,0,.15.381.385.385,0,0,0,.412.021C4.282,11.161,6.4,9.974,6.4,9.974l3.529,1.977a.393.393,0,0,0,.415-.022.375.375,0,0,0,.149-.38c-.328-1.565-.821-3.91-.821-3.91s1.8-1.612,3-2.686a.375.375,0,0,0,.107-.395A.38.38,0,0,0,12.46,4.3c-1.616-.178-4.038-.441-4.038-.441s-1-2.183-1.672-3.638A.39.39,0,0,0,6.4,0a.381.381,0,0,0-.346.221C5.383,1.677,4.379,3.86,4.379,3.86"
        transform="translate(0)" fill="#FFD500" />
    </g>
  </symbol>

  <symbol id="trash" xmlns="http://www.w3.org/2000/svg" xmlns:xlink="http://www.w3.org/1999/xlink"
    viewBox="0 0 24 24">
    <defs>
      <clipPath id="clip-path">
        <rect id="Прямоугольник_375" width="16.667" height="20" fill="#8289a3"></rect>
      </clipPath>
    </defs>
    <g id="Delete_icon" fill="#fff" stroke="#707070" stroke-width="1" opacity="0">
      <rect width="24" height="24" stroke="none"></rect>
      <rect x="0.5" y="0.5" width="23" height="23" fill="none"></rect>
    </g>
    <g id="Сгруппировать_2475" transform="translate(4 2)">
      <g id="Сгруппировать_2474" clip-path="url(#clip-path)">
        <path id="Контур_815"
          d="M10,7.5a.834.834,0,0,1,.833.833V15a.833.833,0,0,1-1.667,0V8.333A.834.834,0,0,1,10,7.5m-3.333,0a.834.834,0,0,1,.833.833V15a.833.833,0,0,1-1.667,0V8.333A.834.834,0,0,1,6.667,7.5m7.4-2.5H2.6L4,17.592a.834.834,0,0,0,.828.742h7.017a.834.834,0,0,0,.828-.742Zm-2.4-1.667V2.5A2.5,2.5,0,0,0,9.167,0H7.5A2.5,2.5,0,0,0,5,2.5v.833H.833A.833.833,0,0,0,.833,5H.921L2.34,17.776A2.5,2.5,0,0,0,4.825,20h7.017a2.5,2.5,0,0,0,2.485-2.224L15.746,5h.087a.833.833,0,0,0,0-1.667ZM7.5,1.667a.834.834,0,0,0-.833.833v.833H10V2.5a.834.834,0,0,0-.833-.833Z"
          fill-rule="evenodd"></path>
      </g>
    </g>
  </symbol>

  <symbol xmlns="http://www.w3.org/2000/svg" xmlns:xlink="http://www.w3.org/1999/xlink" viewBox="0 0 22 22" id="printer">
    <defs>
      <clipPath id="clip-path">
        <rect id="Прямоугольник_12201" width="22" height="22" fill="#8289a3"></rect>
      </clipPath>
    </defs>
    <g id="Сгруппировать_5263" clip-path="url(#clip-path)">
      <path id="Контур_1535" d="M14,10a1,1,0,0,1,1-1h1a1,1,0,0,1,0,2H15a1,1,0,0,1-1-1m1,5H7v4a1,1,0,0,0,1,1h6a1,1,0,0,0,1-1Zm2,2h2a1,1,0,0,0,1-1V8a1,1,0,0,0-1-1H3A1,1,0,0,0,2,8v8a1,1,0,0,0,1,1H5V15a1,1,0,0,1,0-2H17a1,1,0,0,1,0,2ZM17,5V3a3,3,0,0,0-3-3H8A3,3,0,0,0,5,3V5H3A3,3,0,0,0,0,8v8a3,3,0,0,0,3,3H5a3,3,0,0,0,3,3h6a3,3,0,0,0,3-3h2a3,3,0,0,0,3-3V8a3,3,0,0,0-3-3ZM8,2A1,1,0,0,0,7,3V5h8V3a1,1,0,0,0-1-1Z" fill-rule="evenodd"></path>
    </g>
  </symbol>

  <symbol xmlns="http://www.w3.org/2000/svg" viewBox="0 0 14.414 14.828" id="swiper-arrow-prev">
    <g id="Сгруппировать_5289" transform="translate(-25.398 -132.172)">
      <g id="Сгруппировать_5136">
        <line id="Линия_394" x1="11.408" transform="translate(27.404 139.586)" fill="none" stroke="#8289a3" stroke-linecap="round" stroke-width="2"></line>
        <line id="Линия_395" x1="5.913" y2="5.913" transform="translate(26.813 133.586)" fill="none" stroke="#8289a3" stroke-linecap="round" stroke-width="2"></line>
        <line id="Линия_396" x1="5.913" y1="5.913" transform="translate(26.813 139.673)" fill="none" stroke="#8289a3" stroke-linecap="round" stroke-width="2"></line>
      </g>
    </g>
  </symbol>

  <symbol xmlns="http://www.w3.org/2000/svg" viewBox="0 0 14.414 14.828" id="swiper-arrow-next">
    <g id="arrow" transform="translate(39.813 147.001) rotate(180)">
      <g id="Сгруппировать_5136">
        <line id="Линия_394" x1="11.408" transform="translate(27.404 139.586)" fill="none" stroke="#8289a3" stroke-linecap="round" stroke-width="2"></line>
        <line id="Линия_395" x1="5.913" y2="5.913" transform="translate(26.813 133.586)" fill="none" stroke="#8289a3" stroke-linecap="round" stroke-width="2"></line>
        <line id="Линия_396" x1="5.913" y1="5.913" transform="translate(26.813 139.673)" fill="none" stroke="#8289a3" stroke-linecap="round" stroke-width="2"></line>
      </g>
    </g>
  </symbol>

   <symbol id="no_review" xmlns="http://www.w3.org/2000/svg" xmlns:xlink="http://www.w3.org/1999/xlink" viewBox="0 0 217.001 71.333">
    <defs>
      <clipPath id="clip-path">
        <rect id="Прямоугольник_1271" width="217.001" height="71.333" fill="none"></rect>
      </clipPath>
      <clipPath id="clip-path-3">
        <rect id="Прямоугольник_1265" width="15.562" height="20.279" fill="none"></rect>
      </clipPath>
    </defs>
    <g id="Сгруппировать_4092" clip-path="url(#clip-path)">
      <path id="Контур_1348" d="M12.269,16.642,1,18.279,9.155,26.23,7.23,37.456l10.081-5.3,10.081,5.3L25.466,26.23l8.155-7.951L22.352,16.642,17.311,6.429Z" transform="translate(0.892 5.733)" fill="#fff"></path>
      <g id="Сгруппировать_4091" transform="translate(0 0.001)">
        <g id="Сгруппировать_4090" clip-path="url(#clip-path)">
          <path id="Контур_1349" d="M28.284,40.239a1.9,1.9,0,0,1-.882-.218l-9.2-4.837L9,40.022a1.891,1.891,0,0,1-2.745-1.994L8.013,27.782.571,20.525A1.892,1.892,0,0,1,1.619,17.3L11.9,15.8l4.6-9.321a1.89,1.89,0,0,1,3.39,0L24.5,15.8,34.786,17.3a1.892,1.892,0,0,1,1.048,3.227l-7.442,7.257,1.756,10.246a1.89,1.89,0,0,1-1.863,2.211M18.2,31.155a1.893,1.893,0,0,1,.882.218l6.687,3.517-1.277-7.448a1.9,1.9,0,0,1,.543-1.674l5.412-5.276-7.478-1.086a1.885,1.885,0,0,1-1.425-1.035L18.2,11.594l-3.347,6.776a1.885,1.885,0,0,1-1.423,1.035L5.955,20.491l5.412,5.276a1.9,1.9,0,0,1,.543,1.674L10.633,34.89l6.687-3.517a1.893,1.893,0,0,1,.882-.218" transform="translate(0 4.841)" fill="#0d2a62"></path>
          <g id="Сгруппировать_4077" transform="translate(20.159 23.713)" opacity="0.1">
            <g id="Сгруппировать_4076">
              <g id="Сгруппировать_4075" clip-path="url(#clip-path-3)">
                <path id="Контур_1350" d="M26.218,13.639l-7.6-1.1L10.657,20.3l1.434,8.362,7.9,4.151L18.063,21.588Z" transform="translate(-10.656 -12.535)" fill="#0d2a62"></path>
              </g>
            </g>
          </g>
          <path id="Контур_1351" d="M39.481,6.429l5.04,10.214,11.271,1.638L47.636,26.23l1.926,11.226-10.081-5.3L29.4,37.455,31.326,26.23,23.17,18.281l11.271-1.638Z" transform="translate(20.662 5.732)" fill="#fff"></path>
          <path id="Контур_1352" d="M30.291,40.2a1.89,1.89,0,0,1-1.863-2.211l1.757-10.246-7.444-7.257a1.892,1.892,0,0,1,1.048-3.227l10.287-1.494,4.6-9.321a1.968,1.968,0,0,1,3.39,0l4.6,9.321,10.287,1.494a1.892,1.892,0,0,1,1.048,3.227l-7.444,7.257,1.756,10.246a1.891,1.891,0,0,1-2.745,1.994l-9.2-4.837-9.2,4.837a1.9,1.9,0,0,1-.882.218m10.081-9.084a1.893,1.893,0,0,1,.882.218l6.687,3.517L46.664,27.4a1.9,1.9,0,0,1,.543-1.676l5.412-5.274-7.478-1.086a1.885,1.885,0,0,1-1.423-1.035l-3.347-6.776L37.028,18.33A1.885,1.885,0,0,1,35.6,19.365l-7.476,1.086,5.412,5.274a1.9,1.9,0,0,1,.543,1.676L32.8,34.849l6.687-3.517a1.893,1.893,0,0,1,.882-.218" transform="translate(19.771 4.881)" fill="#0d2a62"></path>
          <g id="Сгруппировать_4080" transform="translate(62.1 23.713)" opacity="0.1">
            <g id="Сгруппировать_4079">
              <g id="Сгруппировать_4078" clip-path="url(#clip-path-3)">
                <path id="Контур_1353" d="M48.388,13.639l-7.6-1.1L32.827,20.3l1.434,8.362,7.9,4.151L40.233,21.588Z" transform="translate(-32.826 -12.535)" fill="#0d2a62"></path>
              </g>
            </g>
          </g>
          <path id="Контур_1354" d="M61.651,6.429l5.04,10.214,11.271,1.638L69.807,26.23l1.926,11.226-10.081-5.3-10.081,5.3L53.5,26.23,45.34,18.281l11.271-1.638Z" transform="translate(40.433 5.732)" fill="#fff"></path>
          <path id="Контур_1355" d="M52.463,40.2A1.89,1.89,0,0,1,50.6,37.988l1.756-10.246-7.444-7.257a1.892,1.892,0,0,1,1.048-3.227l10.287-1.494,4.6-9.321a1.968,1.968,0,0,1,3.39,0l4.6,9.321,10.287,1.494a1.892,1.892,0,0,1,1.048,3.227l-7.444,7.257,1.756,10.246a1.891,1.891,0,0,1-2.745,1.994l-9.2-4.837-9.2,4.837a1.9,1.9,0,0,1-.882.218m10.079-9.084a1.893,1.893,0,0,1,.882.218l6.687,3.517L68.834,27.4a1.9,1.9,0,0,1,.543-1.676l5.412-5.274-7.478-1.086a1.885,1.885,0,0,1-1.423-1.035l-3.347-6.776L59.2,18.33a1.885,1.885,0,0,1-1.424,1.035L50.3,20.451l5.412,5.274a1.9,1.9,0,0,1,.543,1.676l-1.277,7.448,6.686-3.517a1.893,1.893,0,0,1,.882-.218" transform="translate(39.541 4.881)" fill="#0d2a62"></path>
          <g id="Сгруппировать_4083" transform="translate(104.041 23.713)" opacity="0.1">
            <g id="Сгруппировать_4082">
              <g id="Сгруппировать_4081" clip-path="url(#clip-path-3)">
                <path id="Контур_1356" d="M70.559,13.639l-7.6-1.1L55,20.3l1.434,8.362,7.9,4.151L62.4,21.588Z" transform="translate(-54.997 -12.535)" fill="#0d2a62"></path>
              </g>
            </g>
          </g>
          <path id="Контур_1357" d="M83.821,6.429l5.04,10.214,11.271,1.638L91.977,26.23,93.9,37.455l-10.081-5.3-10.081,5.3L75.666,26.23,67.51,18.281l11.271-1.638Z" transform="translate(60.204 5.732)" fill="#fff"></path>
          <path id="Контур_1358" d="M94.8,40.238a1.914,1.914,0,0,1-.882-.216l-9.2-4.837-9.2,4.837a1.892,1.892,0,0,1-2.745-1.994l1.757-10.246L67.08,20.525A1.892,1.892,0,0,1,68.13,17.3L78.417,15.8l4.6-9.321a1.892,1.892,0,0,1,3.392,0l4.6,9.321L101.3,17.3a1.892,1.892,0,0,1,1.05,3.227L94.9,27.782,96.66,38.028a1.887,1.887,0,0,1-1.863,2.21M72.468,20.491l5.41,5.274a1.888,1.888,0,0,1,.543,1.674l-1.275,7.448,6.687-3.517a1.9,1.9,0,0,1,1.761,0l6.689,3.517L91.005,27.44a1.893,1.893,0,0,1,.543-1.674l5.41-5.274-7.476-1.086a1.893,1.893,0,0,1-1.424-1.037l-3.343-6.774-3.347,6.776a1.892,1.892,0,0,1-1.424,1.035Z" transform="translate(59.311 4.841)" fill="#0d2a62"></path>
          <g id="Сгруппировать_4086" transform="translate(145.982 23.713)" opacity="0.1">
            <g id="Сгруппировать_4085">
              <g id="Сгруппировать_4084" clip-path="url(#clip-path-3)">
                <path id="Контур_1359" d="M92.729,13.639l-7.6-1.1L77.167,20.3,78.6,28.663l7.9,4.151L84.574,21.588Z" transform="translate(-77.167 -12.535)" fill="#0d2a62"></path>
              </g>
            </g>
          </g>
          <path id="Контур_1360" d="M107.566,6.429l5.04,10.214,11.271,1.638-8.155,7.949,1.926,11.226-10.081-5.3-10.081,5.3L99.411,26.23l-8.155-7.949,11.271-1.638Z" transform="translate(81.379 5.732)" fill="#fff"></path>
          <path id="Контур_1361" d="M98.376,40.2a1.89,1.89,0,0,1-1.863-2.211L98.27,27.742l-7.444-7.257a1.892,1.892,0,0,1,1.048-3.227l10.287-1.494,4.6-9.321a1.968,1.968,0,0,1,3.39,0l4.6,9.321,10.287,1.494a1.892,1.892,0,0,1,1.048,3.227l-7.444,7.257L120.4,37.988a1.891,1.891,0,0,1-2.745,1.994l-9.2-4.837-9.2,4.837a1.9,1.9,0,0,1-.882.218m10.081-9.084a1.893,1.893,0,0,1,.882.218l6.687,3.517L114.749,27.4a1.9,1.9,0,0,1,.543-1.676l5.412-5.274-7.478-1.086A1.885,1.885,0,0,1,111.8,18.33l-3.347-6.776-3.345,6.776a1.885,1.885,0,0,1-1.424,1.035l-7.476,1.086,5.412,5.274a1.9,1.9,0,0,1,.543,1.676l-1.279,7.448,6.687-3.517a1.893,1.893,0,0,1,.882-.218" transform="translate(80.487 4.881)" fill="#0d2a62"></path>
          <g id="Сгруппировать_4089" transform="translate(190.902 23.713)" opacity="0.1">
            <g id="Сгруппировать_4088">
              <g id="Сгруппировать_4087" clip-path="url(#clip-path-3)">
                <path id="Контур_1362" d="M116.474,13.639l-7.6-1.1L100.912,20.3l1.434,8.362,7.9,4.151-1.924-11.226Z" transform="translate(-100.912 -12.535)" fill="#0d2a62"></path>
              </g>
            </g>
          </g>
          <line id="Линия_242" y2="4.911" transform="translate(188.784 1.418)" fill="#fff"></line>
          <path id="Контур_1363" d="M100.461,7.749A1.419,1.419,0,0,1,99.042,6.33V1.419a1.419,1.419,0,0,1,2.838,0V6.33a1.419,1.419,0,0,1-1.419,1.419" transform="translate(88.323 -0.001)" fill="#0d2a62"></path>
          <line id="Линия_243" x1="3.462" y2="3.462" transform="translate(201.1 8.623)" fill="#fff"></line>
          <path id="Контур_1364" d="M106.972,10.107a1.419,1.419,0,0,1-1-2.421l3.462-3.462a1.419,1.419,0,1,1,2.005,2.007l-3.462,3.46a1.408,1.408,0,0,1-1,.416" transform="translate(94.129 3.396)" fill="#0d2a62"></path>
          <line id="Линия_244" x1="3.462" y1="3.462" transform="translate(173.297 11.239)" fill="#fff"></line>
          <path id="Контур_1365" d="M95.736,11.491a1.409,1.409,0,0,1-1-.416l-3.46-3.462a1.418,1.418,0,0,1,2.005-2.005l3.46,3.462a1.419,1.419,0,0,1-1,2.421" transform="translate(81.023 4.63)" fill="#0d2a62"></path>
          <line id="Линия_245" x1="4.896" transform="translate(210.687 27.098)" fill="#fff"></line>
          <path id="Контур_1366" d="M116.935,16.413h-4.9a1.419,1.419,0,0,1,0-2.838h4.9a1.419,1.419,0,0,1,0,2.838" transform="translate(98.647 12.105)" fill="#0d2a62"></path>
          <line id="Линия_246" x1="3.462" y1="3.462" transform="translate(205.535 45.13)" fill="#fff"></line>
          <path id="Контур_1367" d="M112.777,29.405a1.412,1.412,0,0,1-1-.416l-3.458-3.46a1.418,1.418,0,1,1,2-2.007l3.462,3.462a1.419,1.419,0,0,1-1,2.421" transform="translate(96.22 20.605)" fill="#0d2a62"></path>
          <line id="Линия_247" y1="3.462" x2="3.462" transform="translate(170.92 47.394)" fill="#fff"></line>
          <path id="Контур_1368" d="M91.019,30.6a1.419,1.419,0,0,1-1-2.421l3.46-3.462a1.419,1.419,0,0,1,2.005,2.007l-3.46,3.46a1.408,1.408,0,0,1-1,.416" transform="translate(79.903 21.672)" fill="#0d2a62"></path>
          <line id="Линия_248" x1="4.896" transform="translate(163.47 27.098)" fill="#fff"></line>
          <path id="Контур_1369" d="M91.975,16.413H87.081a1.419,1.419,0,1,1,0-2.838h4.894a1.419,1.419,0,0,1,0,2.838" transform="translate(76.391 12.105)" fill="#0d2a62"></path>
          <path id="Контур_1370" d="M102.709,30.881a5.917,5.917,0,1,1,5.917-5.916,5.923,5.923,0,0,1-5.917,5.916" transform="translate(86.316 16.986)" fill="#0d2a62"></path>
          <path id="Контур_1371" d="M103.6,21.832a4.025,4.025,0,1,1-4.026,4.026,4.026,4.026,0,0,1,4.026-4.026m0-3.784a7.808,7.808,0,1,0,7.809,7.809,7.819,7.819,0,0,0-7.809-7.809" transform="translate(85.424 16.094)" fill="#fff"></path>
          <path id="Контур_1372" d="M104.357,50.721a2.175,2.175,0,0,1-2.085-1.322,57.252,57.252,0,0,0-4.6-7.817c-.868-1.356-1.661-2.667-2.452-3.978a5.622,5.622,0,0,1-.566-1.245,2.645,2.645,0,0,1,1.254-3.3,2.782,2.782,0,0,1,1.36-.344,2.876,2.876,0,0,1,2.022.825l.293.32s1.846,2.115,2.249,2.573c.008-1.71.009-12.488.009-12.488a2.873,2.873,0,0,1,2.406-2.913,3.889,3.889,0,0,1,.465-.038,2.855,2.855,0,0,1,2.709,1.949,3.86,3.86,0,0,1,.165,1.207q0,1.66,0,3.341a3.128,3.128,0,0,1,.513-.168,2.942,2.942,0,0,1,.63-.068,2.889,2.889,0,0,1,2.616,1.7,2.871,2.871,0,0,1,1.2-.356l.017,0a2.979,2.979,0,0,1,2.9,1.977,2.873,2.873,0,0,1,4.16,2.552c0,.055,0,.18-.008.233.011,1.617.011,3.392.006,5.165a14.163,14.163,0,0,1-.053,2.295c-.261,1.563-.577,3.084-.961,4.639-.193.808-.431,1.612-.672,2.416-.123.407-.244.813-.359,1.222a2.162,2.162,0,0,1-2.164,1.631Z" transform="translate(84.25 18.721)" fill="#fff"></path>
          <path id="Контур_1373" d="M105.605,23.777a.969.969,0,0,1,.916.658,1.856,1.856,0,0,1,.066.549q.006,4.62,0,9.238a1.032,1.032,0,0,0,.776,1.129,1.01,1.01,0,0,0,1.23-.721,1.059,1.059,0,0,0,.023-.112,2.912,2.912,0,0,0,.019-.407V31.12a1.007,1.007,0,0,1,.779-1.061.976.976,0,0,1,1.163.749,1.036,1.036,0,0,1,.021.253c.006,1.506,0,3.01,0,4.516a1.032,1.032,0,0,0,.9,1.145.867.867,0,0,0,.121.008,1.03,1.03,0,0,0,1.023-.912,1.063,1.063,0,0,0,0-.233V32.447a1,1,0,0,1,.925-1.075l.034,0h.006a.991.991,0,0,1,.993.986c0,.028,0,.057,0,.085v4.485a1.047,1.047,0,0,0,.8,1.118,1,1,0,0,0,.235.028,1.012,1.012,0,0,0,1.006-1.01c.015-.929.006-1.858.008-2.787v-.235a.983.983,0,0,1,.976-.991h.008a.983.983,0,0,1,.984.978c0,.023,0,.045,0,.068q.009,2.656,0,5.308a13.068,13.068,0,0,1-.045,2.107c-.246,1.47-.558,2.932-.914,4.381-.289,1.2-.679,2.384-1.016,3.575-.055.2-.144.252-.342.252q-2.764-.006-5.528,0t-5.528,0c-.155,0-.271-.011-.346-.185a59.1,59.1,0,0,0-4.788-8.148c-.827-1.292-1.619-2.6-2.412-3.916a3.726,3.726,0,0,1-.371-.855.755.755,0,0,1,.339-.986.985.985,0,0,1,.492-.132,1,1,0,0,1,.7.286c.1.1.184.2.274.3,1.2,1.375,2.4,2.758,3.617,4.12a1.339,1.339,0,0,0,.679.407.985.985,0,0,0,1.158-.772.9.9,0,0,0,.015-.276q.028-3.689.025-7.37V24.836a1.007,1.007,0,0,1,.834-1.048.963.963,0,0,1,.146-.011m0-3.784a4.732,4.732,0,0,0-.709.053,4.818,4.818,0,0,0-4.054,4.854v7.637a4.775,4.775,0,0,0-4.983-.231,4.533,4.533,0,0,0-2.1,5.566,7.37,7.37,0,0,0,.69,1.53c0,.009.057.1.062.1.793,1.313,1.587,2.626,2.412,3.918.03.045.061.091.091.134a55.673,55.673,0,0,1,4.474,7.609,4.088,4.088,0,0,0,3.759,2.336l5.528,0,5.522,0a4.045,4.045,0,0,0,4-3.034c.108-.382.229-.785.348-1.188.238-.8.486-1.627.7-2.5.4-1.631.717-3.154.967-4.642.013-.079.025-.161.032-.24A16.722,16.722,0,0,0,122.4,39.3q.009-2.582,0-5.163c0-.057,0-.112,0-.151a4.777,4.777,0,0,0-4.767-4.724c-.127,0-.252.006-.376.017a4.773,4.773,0,0,0-3.647-1.7c-.053,0-.112,0-.165,0-.038,0-.108,0-.146.008-.114.008-.227.021-.339.036a4.793,4.793,0,0,0-2.592-1.32c0-.431,0-.863,0-1.292a5.65,5.65,0,0,0-.206-1.6q-.026-.094-.057-.187a4.745,4.745,0,0,0-4.5-3.241" transform="translate(83.358 17.829)" fill="#0d2a62"></path>
        </g>
      </g>
    </g>
  </symbol>
   <symbol id="rotate" xmlns="http://www.w3.org/2000/svg" xmlns:xlink="http://www.w3.org/1999/xlink" viewBox="0 0 24 24">
    <defs>
      <clipPath id="clip-path">
        <rect id="Прямоугольник_501" width="21.003" height="18.689" ></rect>
      </clipPath>
    </defs>
    <g id="Прямоугольник_502"  stroke-width="1" opacity="0">
      <rect width="24" height="24" stroke="none"></rect>
      <rect x="0.5" y="0.5" width="23" height="23" fill="none"></rect>
    </g>
    <g id="Сгруппировать_2662" transform="translate(1.498 2.655)">
      <g id="Сгруппировать_2661" transform="translate(0 0)" clip-path="url(#clip-path)">
        <path id="Контур_885" d="M18.008,5.778c.269-.548.511-1.054.763-1.556a1.164,1.164,0,1,1,2.117.97q-1.136,2.381-2.312,4.743a1.126,1.126,0,0,1-1.6.469q-2.247-1.332-4.474-2.7a1.162,1.162,0,0,1,1.21-1.983c.662.384,1.314.787,1.97,1.181.077.046.156.089.273.155-.03-.1-.043-.172-.067-.235a7.008,7.008,0,1,0-7.538,9.451,6.8,6.8,0,0,0,5.673-1.722,1.4,1.4,0,0,1,1.037-.472,1.169,1.169,0,0,1,.721,2.036,9.181,9.181,0,0,1-4.437,2.355A9.344,9.344,0,1,1,17.871,5.5c.036.079.076.157.136.281" transform="translate(0 0)" ></path>
      </g>
    </g>
  </symbol>
</svg>