<svg xmlns="http://www.w3.org/2000/svg" version="1.1" viewBox="0 0 601 199" width="601.0pt"
    height="199.0pt">
    <path d="M 0.00 0.00 L 601.00 0.00 L 601.00 199.00 L 0.00 199.00 L 0.00 0.00 Z" fill="#ffffff" />
    <path
        d="M 99.06 2.02 C 101.81 2.34 101.96 4.56 104.03 5.83 C 111.27 10.55 118.18 15.71 125.41 20.43 C 134.08 26.83 143.33 32.41 151.99 38.81 C 156.59 41.97 161.32 44.96 165.84 48.23 C 173.57 53.98 181.77 59.07 189.53 64.76 C 189.36 103.50 189.51 142.26 189.46 181.00 C 189.43 185.16 189.63 189.28 189.22 193.44 C 128.74 193.54 68.25 193.49 7.77 193.46 C 7.44 190.31 7.47 187.16 7.51 184.00 C 7.52 147.33 7.51 110.67 7.52 74.00 C 7.49 70.67 7.79 67.50 6.94 64.23 C 8.39 61.29 11.00 60.40 13.54 58.60 C 25.54 50.51 37.59 42.49 49.57 34.37 C 52.47 32.15 55.45 30.23 58.58 28.36 C 64.89 23.63 71.73 19.69 78.01 14.94 C 82.35 11.98 86.77 9.13 91.09 6.16 C 93.77 4.03 95.12 1.46 99.06 2.02 Z"
        fill="#000000" />
    <path
        d="M 98.52 6.45 C 101.25 8.86 104.47 10.49 107.32 12.72 C 128.52 27.34 148.83 41.26 170.03 55.91 C 175.16 59.19 179.75 63.06 185.09 65.98 C 185.11 107.44 185.07 148.91 185.11 190.38 C 127.04 190.31 68.97 190.33 10.90 190.37 C 10.92 148.68 10.93 106.99 10.90 65.31 C 12.08 64.61 13.28 63.94 14.48 63.27 C 15.85 62.42 17.22 61.58 18.58 60.71 C 21.64 57.93 25.21 56.05 28.54 53.65 C 34.58 48.99 41.32 45.21 47.39 40.60 C 55.69 34.88 64.25 29.51 72.44 23.64 C 81.20 18.12 89.51 11.53 98.52 6.45 Z"
        fill="#ffffff" />
    <path
        d="M 355.36 73.46 C 364.87 72.89 374.30 74.45 382.52 79.47 C 395.46 87.50 403.12 101.72 404.40 116.73 C 405.32 127.18 404.11 137.97 399.50 147.49 C 394.26 158.20 385.32 167.01 373.79 170.60 C 364.38 173.57 352.86 173.49 343.50 170.39 C 330.13 166.01 320.18 154.33 315.97 141.16 C 313.00 131.65 312.64 121.28 314.34 111.50 C 316.50 99.46 323.05 88.24 333.03 81.04 C 339.58 76.35 347.36 73.95 355.36 73.46 Z"
        fill="#000000" />
    <path
        d="M 39.63 74.94 C 42.10 74.94 44.58 74.94 47.05 74.94 C 58.85 103.55 70.64 132.18 82.43 160.80 C 94.25 132.19 106.01 103.55 117.83 74.94 C 120.30 74.94 122.77 74.94 125.25 74.94 C 125.26 106.96 125.25 138.98 125.25 171.00 C 123.69 171.00 122.12 171.00 120.56 171.00 C 120.55 140.88 120.57 110.76 120.55 80.65 C 108.08 110.64 95.67 141.15 83.09 171.04 C 82.01 171.13 81.41 170.78 81.26 170.00 C 68.95 140.24 56.64 110.40 44.32 80.65 C 44.30 110.76 44.32 140.88 44.31 171.00 C 42.75 171.00 41.19 171.00 39.62 171.00 C 39.63 138.98 39.62 106.96 39.63 74.94 Z"
        fill="#000000" />
    <path
        d="M 216.63 74.94 C 218.19 74.94 219.75 74.94 221.31 74.94 C 221.33 89.77 221.30 104.61 221.32 119.44 C 243.13 119.43 264.94 119.44 286.75 119.43 C 286.75 104.60 286.74 89.77 286.75 74.94 C 288.31 74.94 289.87 74.94 291.44 74.94 C 291.44 106.98 291.44 139.02 291.44 171.06 C 289.87 171.06 288.31 171.06 286.75 171.06 C 286.74 155.31 286.75 139.57 286.75 123.82 C 264.94 123.81 243.13 123.81 221.32 123.82 C 221.31 139.57 221.32 155.31 221.31 171.06 C 219.75 171.06 218.19 171.06 216.63 171.06 C 216.62 139.02 216.62 106.98 216.63 74.94 Z"
        fill="#000000" />
    <path
        d="M 426.63 74.94 C 429.10 74.94 431.58 74.94 434.05 74.94 C 445.85 103.56 457.64 132.18 469.43 160.80 C 481.25 132.19 493.01 103.55 504.83 74.94 C 507.30 74.94 509.77 74.94 512.25 74.94 C 512.25 106.98 512.25 139.02 512.25 171.06 C 510.69 171.06 509.13 171.06 507.56 171.06 C 507.55 140.92 507.57 110.78 507.55 80.65 C 495.02 110.91 482.55 141.20 470.00 171.45 C 468.94 170.93 468.24 170.18 467.91 169.19 C 455.82 139.87 443.46 110.00 431.32 80.65 C 431.30 110.78 431.32 140.92 431.31 171.06 C 429.75 171.06 428.19 171.06 426.63 171.06 C 426.62 139.02 426.62 106.98 426.63 74.94 Z"
        fill="#000000" />
    <path
        d="M 537.63 74.94 C 557.23 74.93 576.83 74.94 596.44 74.94 C 596.44 76.40 596.44 77.85 596.44 79.31 C 578.40 79.32 560.36 79.31 542.32 79.32 C 542.32 92.69 542.30 106.06 542.32 119.44 C 560.03 119.43 577.74 119.43 595.44 119.44 C 595.44 120.90 595.44 122.36 595.44 123.81 C 577.73 123.82 560.02 123.81 542.32 123.82 C 542.31 138.11 542.31 152.40 542.32 166.68 C 560.36 166.69 578.40 166.68 596.44 166.69 C 596.44 168.15 596.44 169.60 596.44 171.06 C 576.83 171.06 557.23 171.07 537.63 171.06 C 537.62 139.02 537.62 106.98 537.63 74.94 Z"
        fill="#000000" />
    <path
        d="M 349.48 78.68 C 357.69 77.05 366.66 77.41 374.49 80.49 C 385.81 84.92 394.01 95.26 397.37 106.76 C 399.96 115.78 400.14 125.58 398.47 134.79 C 396.46 145.24 390.88 154.91 382.28 161.28 C 376.67 165.43 369.96 167.66 363.03 168.20 C 353.88 168.92 344.59 167.33 336.88 162.15 C 327.61 155.88 321.62 145.68 319.54 134.78 C 317.84 125.32 318.05 115.22 320.87 105.99 C 325.00 92.59 335.43 81.48 349.48 78.68 Z"
        fill="#ffffff" />
    <path
        d="M 151.30 81.31 C 154.21 80.37 157.11 82.84 156.73 85.86 C 156.29 89.25 152.15 90.76 149.66 88.34 C 147.28 86.11 148.31 82.33 151.30 81.31 Z"
        fill="#000000" />
    <path
        d="M 150.38 101.43 C 151.84 101.43 153.30 101.44 154.77 101.46 C 154.73 124.66 154.76 147.86 154.75 171.06 C 153.29 171.06 151.83 171.06 150.38 171.06 C 150.37 147.85 150.36 124.64 150.38 101.43 Z"
        fill="#000000" />
</svg>