<?xml version="1.0" standalone="no"?>
<!DOCTYPE svg PUBLIC "-//W3C//DTD SVG 20010904//EN"
 "http://www.w3.org/TR/2001/REC-SVG-20010904/DTD/svg10.dtd">
<svg version="1.0" xmlns="http://www.w3.org/2000/svg"
 width="223.000000pt" height="223.000000pt" viewBox="0 0 223.000000 223.000000"
 preserveAspectRatio="xMidYMid meet">
<metadata>
Created by potrace 1.14, written by Peter Selinger 2001-2017
</metadata>
<g transform="translate(0.000000,223.000000) scale(0.100000,-0.100000)"
fill="#000000" stroke="none">
<path d="M540 1935 c-277 -162 -507 -301 -511 -307 -9 -18 -8 -1484 2 -1499 5
-9 238 -12 1038 -12 567 0 1034 3 1038 6 7 7 9 1505 2 1511 -7 6 -194 113
-960 547 -48 27 -90 49 -95 48 -5 0 -236 -133 -514 -294z m820 72 c135 -76
261 -148 280 -159 19 -12 60 -35 90 -51 30 -17 118 -67 195 -111 l140 -81 0
-718 c0 -394 -2 -718 -5 -718 -3 -1 -452 -2 -997 -3 l-993 -1 0 720 0 720 318
185 c174 101 396 230 492 286 174 102 175 102 205 86 16 -8 140 -78 275 -155z"/>
<path d="M349 1363 c0 -60 -1 -313 0 -563 l0 -455 25 -3 c19 -3 26 1 27 15 0
10 1 247 1 527 l1 508 22 -48 c12 -27 108 -258 214 -514 105 -256 196 -472
201 -480 9 -13 11 -13 20 0 5 8 102 240 216 515 113 275 210 506 213 513 4 8
8 -220 9 -505 0 -285 1 -521 1 -525 1 -5 12 -8 26 -8 19 0 25 5 26 23 0 12 1
266 2 564 l2 543 -43 0 c-52 0 -19 65 -268 -539 -101 -244 -187 -447 -191
-452 -4 -4 -93 200 -197 454 -104 254 -198 479 -208 500 -17 33 -22 37 -58 37
l-40 0 -1 -107z"/>
<path d="M1654 1390 c-42 -17 -39 -76 4 -87 50 -12 81 39 46 78 -19 21 -20 21
-50 9z"/>
<path d="M1654 1145 c-3 -7 -6 -192 -7 -409 l-2 -396 28 0 27 0 0 408 c0 404
0 408 -21 409 -11 1 -22 -4 -25 -12z"/>
</g>
</svg>
